<svg width="200" height="200" viewBox="0 0 200 200" xmlns="http://www.w3.org/2000/svg">
  <circle cx="100" cy="100" r="90" fill="#F1E8D9" />
  <!-- Soil -->
  <path d="M60 160 Q100 180 140 160" stroke="#8D6E63" stroke-width="4" fill="none" stroke-linecap="round"/>
  <!-- Stem -->
  <path d="M100 160 Q100 100 100 70" stroke="#8FB58D" stroke-width="5" fill="none" stroke-linecap="round"/>
  <!-- Leaves -->
  <path d="M100 130 Q60 120 50 130 Q60 150 100 130" fill="#A4C3A2" />
  <path d="M100 110 Q140 100 150 110 Q140 130 100 110" fill="#A4C3A2" />
  <!-- Bloom -->
  <g transform="translate(100, 60)">
    <circle cx="0" cy="0" r="15" fill="#FFE082" />
    <path d="M0 -15 Q10 -40 0 -50 Q-10 -40 0 -15" fill="#E4B9C0" />
    <path d="M0 15 Q10 40 0 50 Q-10 40 0 15" fill="#E4B9C0" />
    <path d="M15 0 Q40 10 50 0 Q40 -10 15 0" fill="#E4B9C0" />
    <path d="M-15 0 Q-40 10 -50 0 Q-40 -10 -15 0" fill="#E4B9C0" />
    <path d="M10 -10 Q30 -30 35 -35 Q30 -30 10 -10" fill="#E4B9C0" /> <!-- Petals diagonal -->
    <path d="M10.6 -10.6 Q28 -28 35.3 -35.3 Q28 -28 10.6 -10.6" stroke="#E4B9C0" stroke-width="15" stroke-linecap="round" />
    <path d="M-10.6 -10.6 Q-28 -28 -35.3 -35.3 Q-28 -28 -10.6 -10.6" stroke="#E4B9C0" stroke-width="15" stroke-linecap="round" />
    <path d="M10.6 10.6 Q28 28 35.3 35.3 Q28 28 10.6 10.6" stroke="#E4B9C0" stroke-width="15" stroke-linecap="round" />
    <path d="M-10.6 10.6 Q-28 28 -35.3 35.3 Q-28 28 -10.6 10.6" stroke="#E4B9C0" stroke-width="15" stroke-linecap="round" />
  </g>
</svg>
